<svg width="140" height="79" viewBox="0 0 140 79" fill="none" xmlns="http://www.w3.org/2000/svg">
<path d="M101.72 58.6234C100.176 58.6227 98.6955 58.0085 97.6042 56.9161C96.5128 55.8236 95.9002 54.3424 95.9009 52.7982C95.9017 51.2541 96.5159 49.7735 97.6083 48.6821C98.7007 47.5908 100.182 46.9781 101.726 46.9788C103.27 46.9788 104.751 47.5923 105.843 48.6842C106.935 49.776 107.548 51.257 107.548 52.8011C107.548 54.3453 106.935 55.8262 105.843 56.9181C104.751 58.01 103.27 58.6234 101.726 58.6234H101.72ZM37.6432 58.6234C36.8787 58.623 36.1216 58.4721 35.4154 58.1791C34.7091 57.8862 34.0675 57.457 33.5271 56.9161C32.4358 55.8236 31.8231 54.3424 31.8239 52.7982C31.8246 51.2541 32.4388 49.7735 33.5312 48.6821C34.6237 47.5908 36.1049 46.9781 37.6491 46.9788C39.1932 46.9788 40.6741 47.5923 41.766 48.6842C42.8579 49.776 43.4713 51.257 43.4713 52.8011C43.4713 54.3453 42.8579 55.8262 41.766 56.9181C40.6741 58.01 39.1932 58.6234 37.6491 58.6234H37.6432ZM103.786 23.7071L115.425 3.63805C115.738 3.08332 115.818 2.42692 115.647 1.81324C115.476 1.19956 115.068 0.678877 114.514 0.365735C113.959 0.0525935 113.303 -0.0273566 112.689 0.143472C112.075 0.314301 111.555 0.721916 111.241 1.27665L99.4808 21.5836C90.1407 17.3144 79.986 15.1211 69.7166 15.155C58.9829 15.155 48.8585 17.4642 39.8886 21.5256L28.128 1.21863C27.9729 0.944332 27.7654 0.703265 27.5172 0.509186C27.269 0.315108 26.9849 0.171821 26.6813 0.087504C26.3778 0.0031875 26.0605 -0.0205072 25.7478 0.0177746C25.435 0.0560565 25.1329 0.155564 24.8586 0.310616C24.5843 0.465669 24.3432 0.673229 24.1491 0.921446C23.9551 1.16966 23.8118 1.45368 23.7275 1.75727C23.6431 2.06086 23.6195 2.37809 23.6577 2.69084C23.696 3.00359 23.7955 3.30574 23.9506 3.58003L35.5255 23.6433C15.6421 34.493 2.00168 54.6259 0 78.4488H139.248C137.31 54.6839 123.727 34.5568 103.786 23.7071V23.7071Z" fill="#A4C639"/>
</svg>
