<svg width="95" height="95" viewBox="0 0 448 512" fill="none" xmlns="http://www.w3.org/2000/svg">
<path d="M416.811 104.533L255.168 8.576C245.733 2.9712 234.961 0.0149564 223.986 0.0187108C213.012 0.0224653 202.242 2.98608 192.811 8.59733L31.168 104.533C21.6114 110.301 13.7153 118.45 8.25198 128.183C2.78871 137.917 -0.0546545 148.902 -2.07491e-05 160.064V351.957C-2.07491e-05 374.848 11.8826 396.032 31.1893 407.488L192.832 503.424C202.263 509.028 213.03 511.986 224 511.986C234.97 511.986 245.737 509.028 255.168 503.424L416.811 407.488C426.371 401.723 434.272 393.575 439.739 383.842C445.206 374.108 448.052 363.121 448 351.957V160.064C448.057 148.899 445.212 137.911 439.744 128.177C434.277 118.442 426.374 110.295 416.811 104.533V104.533ZM291.627 404.181L291.904 417.963C291.925 419.627 290.837 421.525 289.536 422.187L281.365 426.88C280.064 427.541 278.997 426.731 278.976 425.067L278.827 411.52C271.829 414.421 264.747 415.125 260.224 413.312C259.371 412.971 259.008 411.712 259.349 410.283L262.315 397.824C262.539 396.837 263.052 395.939 263.787 395.243C264.016 395.024 264.275 394.837 264.555 394.688C265.024 394.453 265.472 394.389 265.877 394.56C270.763 396.203 276.992 395.435 282.987 392.405C290.603 388.544 295.701 380.779 295.616 373.056C295.552 366.059 291.755 363.136 282.539 363.072C270.805 363.093 259.84 360.789 259.669 343.509C259.52 329.28 266.923 314.475 278.635 305.109L278.485 291.2C278.464 289.493 279.509 287.616 280.853 286.933L288.747 281.899C290.048 281.237 291.115 282.048 291.136 283.755L291.264 297.685C297.088 295.36 302.165 294.741 306.752 295.808C307.755 296.064 308.181 297.429 307.776 299.029L304.704 311.36C304.469 312.293 303.99 313.147 303.317 313.835C303.078 314.073 302.805 314.274 302.507 314.432C302.137 314.639 301.706 314.708 301.291 314.624C299.2 314.155 294.208 313.067 286.379 317.035C278.165 321.195 275.285 328.341 275.349 333.632C275.413 339.968 278.656 341.888 289.877 342.08C304.811 342.336 311.275 348.864 311.424 363.904C311.573 378.603 303.701 394.475 291.627 404.181V404.181ZM376.384 380.992C376.384 382.272 376.213 383.467 375.147 384.085L334.272 408.917C333.205 409.536 332.352 409.003 332.352 407.723V397.184C332.352 395.904 333.141 395.2 334.208 394.581L374.464 370.496C375.531 369.877 376.384 370.411 376.384 371.691V380.992ZM404.459 145.003L251.541 239.445C232.469 250.603 218.411 263.104 218.411 286.101V474.539C218.411 488.299 223.957 497.216 232.491 499.797C229.69 500.32 226.849 500.599 224 500.629C215.04 500.629 206.229 498.197 198.464 493.589L36.8213 397.653C28.9713 392.894 22.4863 386.185 17.9966 378.177C13.507 370.17 11.1656 361.137 11.2 351.957V160.064C11.2 141.269 21.0133 123.755 36.8213 114.368L198.464 18.4107C206.19 13.8167 215.012 11.3919 224 11.3919C232.988 11.3919 241.81 13.8167 249.536 18.4107L411.179 114.368C417.755 118.352 423.383 123.721 427.672 130.102C431.961 136.484 434.806 143.724 436.011 151.317C430.635 139.883 418.56 136.768 404.459 145.003V145.003Z" fill="#FFFFFF"/>
</svg>
