<svg width="95" height="95" viewBox="0 0 70 70" fill="none" xmlns="http://www.w3.org/2000/svg">
<path d="M8.0837 0.0984863C6.01532 0.399778 4.38527 1.24887 2.79632 2.8238C1.85117 3.75507 1.50872 4.2207 1.05669 5.15196C-0.0939282 7.49382 0.00195684 4.75481 0.00195684 35.0072C0.00195684 65.2596 -0.0939282 62.5205 1.05669 64.8624C1.86487 66.5058 3.49491 68.1355 5.13866 68.9435C7.48099 70.0939 4.74142 69.998 35 69.998C65.2586 69.998 62.519 70.0939 64.8613 68.9435C65.7928 68.4916 66.2585 68.1355 67.2037 67.2043C68.1351 66.2593 68.4913 65.7937 68.9433 64.8624C70.0939 62.5205 69.998 65.2596 69.998 35.0072C69.998 4.75481 70.0939 7.49382 68.9433 5.15196C68.1351 3.50855 66.5051 1.87884 64.8613 1.07084C62.5053 -0.0795494 65.3408 0.016316 35.4794 0.00262095C20.7953 -0.0110741 8.53573 0.0300111 8.0837 0.0984863ZM40.3559 15.8615C40.4928 16.6284 40.4928 17.0393 40.3696 17.8062C40.0271 19.8331 38.8902 21.3395 35.7534 23.9553C33.5754 25.763 32.4385 26.886 32.1098 27.5023C31.4523 28.7759 32.0824 32.1723 33.5617 35.3769C33.822 35.9521 34.0138 36.4452 33.9727 36.4862C33.9453 36.5273 33.5891 36.2534 33.1919 35.8837C29.6167 32.5421 28.3154 29.447 29.425 27.0093C30.3016 25.092 31.7536 23.5718 34.7671 21.4217C37.8081 19.2442 38.3012 18.6964 38.9039 16.7517C39.1642 15.9437 39.2463 15.3685 39.26 14.355V13.0266L39.7258 13.9579C39.9723 14.4783 40.26 15.3274 40.3559 15.8615ZM43.2187 22.3256C43.2187 22.353 42.5886 22.8871 41.8215 23.517C39.7669 25.1878 38.3971 26.6258 37.945 27.5297C37.3971 28.6527 37.493 29.3237 38.3971 30.8028C39.4381 32.501 39.6573 33.0351 39.6573 33.9937C39.6573 35.1304 39.1231 36.185 37.9176 37.3764C37.4245 37.8831 36.9862 38.2666 36.9588 38.2529C36.9314 38.2255 37.041 37.8421 37.2054 37.3901C37.356 36.9519 37.5067 36.2397 37.5067 35.8152C37.5341 35.0072 37.6026 35.1441 36.178 33.131C35.3014 31.8984 34.9726 30.9261 34.9452 29.5292C34.9315 28.146 35.1096 27.6803 36.1232 26.5847C37.2328 25.3659 39.7669 23.8046 42.8078 22.4488C43.2187 22.2571 43.2187 22.2571 43.2187 22.3256ZM48.9855 36.6643C50.5334 37.1847 51.5059 39.239 51.0265 40.9919C50.7525 41.9643 49.3965 43.2516 47.876 43.9911C46.7939 44.5252 44.4652 45.3469 44.3693 45.2374C44.3419 45.21 44.7255 44.895 45.2186 44.5252C46.5336 43.5666 48.0541 42.0327 48.5472 41.17C49.2184 39.9785 49.0814 38.9514 48.1363 38.2803C47.602 37.8968 46.2322 37.4723 45.5337 37.4723C45.246 37.4723 44.9994 37.4175 44.9994 37.3627C44.9994 37.2532 46.3555 36.7465 46.9856 36.6095C47.5335 36.4862 48.5335 36.5136 48.9855 36.6643ZM29.3428 37.1573C29.288 37.2121 28.8086 37.3627 28.2743 37.486C27.0552 37.801 25.7128 38.4036 25.5485 38.7185C25.1786 39.4033 26.7676 39.595 32.6029 39.595C37.5067 39.5813 40.2326 39.3896 42.5612 38.9103C43.0954 38.787 43.5612 38.7322 43.5886 38.7596C43.7118 38.8692 42.1914 39.6635 41.0271 40.088C38.5067 41.0193 35.4109 41.4439 31.2468 41.4439C26.0964 41.4439 23.0418 40.7591 22.4254 39.4855C21.8637 38.3214 23.6993 37.486 27.4388 37.2121C28.3154 37.1573 29.1236 37.0888 29.2332 37.0751C29.3428 37.0751 29.3839 37.1025 29.3428 37.1573ZM27.4251 42.649C26.7402 43.4022 27.4388 43.6898 30.466 43.909C32.644 44.0733 35.7397 43.8953 38.1505 43.4844C40.9038 42.9914 40.6161 42.9777 41.5613 43.6762C42.027 44.0185 42.3695 44.3198 42.301 44.3609C42.0818 44.4979 37.945 45.2648 36.2602 45.4702C32.959 45.8947 29.2195 45.703 27.1237 45.0046C26.206 44.7033 25.4115 44.1007 25.4115 43.7172C25.4115 43.3886 26.0279 42.8544 26.6854 42.6216C27.5073 42.334 27.699 42.3477 27.4251 42.649ZM28.8086 47.2916C28.7675 47.6203 28.836 47.6888 29.2606 47.8394C30.9728 48.4009 34.7534 48.4831 37.5478 48.0175L39.4792 47.7025L40.5887 48.3736C41.2051 48.7433 41.712 49.0857 41.712 49.1268C41.712 49.2637 38.9861 50.0717 37.7396 50.3046C35.2603 50.7702 30.2331 50.4826 28.3291 49.7704C26.3429 49.0309 26.1512 47.6066 27.973 47.1136C28.8634 46.8808 28.8497 46.8671 28.8086 47.2916ZM25.1101 50.1402C25.0827 50.1813 24.5622 50.3319 23.9732 50.4826C22.576 50.8387 21.4391 51.3591 21.4391 51.6467C21.4391 52.4273 25.9457 53.1531 31.781 53.3175C37.356 53.4681 43.7392 52.7971 47.2322 51.6878C48.1636 51.4002 48.6979 50.9482 48.4924 50.6195C48.4513 50.5511 48.4787 50.4826 48.5609 50.4826C48.7937 50.4826 49.0129 51.1126 48.917 51.5097C48.6431 52.5916 44.8214 53.7968 39.7258 54.4131C37.1095 54.7144 27.0826 54.7691 24.6581 54.4815C20.6309 54.0022 18.8365 53.2627 18.8365 52.0575C18.8365 51.0167 20.5488 50.4552 24.9184 50.0991C25.069 50.0854 25.1512 50.0991 25.1101 50.1402ZM50.3827 53.6735C49.5745 54.8239 48.0404 55.6319 45.7528 56.1113C42.9722 56.6865 40.9038 56.8508 36.1643 56.8508C32.233 56.8371 31.3564 56.796 29.3839 56.5358C24.6581 55.8784 24.6581 55.8784 32.9453 55.8921C42.1503 55.8921 43.8488 55.7552 47.0541 54.7007C48.0815 54.372 49.8485 53.5229 50.3416 53.112C50.8347 52.7149 50.8484 53.0162 50.3827 53.6735Z" fill="#E84135"/>
</svg>
