<svg width="95" height="95" viewBox="0 0 95 95" fill="none" xmlns="http://www.w3.org/2000/svg">
<path d="M52.6498 22.1706C50.164 16.1223 50.5123 9.31792 54.1025 3.84354L56.7863 0C51.8225 9.30208 56.5488 20.7258 64.1488 26.7148C66.1825 28.3065 68.4495 29.5749 70.87 30.4752C71.5192 30.7127 72.2554 30.966 72.9283 31.1363C81.4229 33.2738 88.3461 31.7973 92.4667 25.6381C92.34 25.8281 92.1777 26.129 91.9719 26.509C90.1352 29.9131 84.7598 39.8763 69.1719 36.7492C68.875 36.6898 68.59 36.5908 68.305 36.4998L68.0517 36.4127L67.8696 36.3533C67.7856 36.3243 67.7011 36.2966 67.6163 36.2702C67.3854 36.1908 67.1558 36.1076 66.9275 36.0208C60.6536 33.63 55.2742 28.595 52.6498 22.1706V22.1706Z" fill="#0865A5"/>
<path d="M32.1416 11.7404C26.0577 20.8248 26.3902 32.9888 31.1362 42.5996C32.0138 44.388 33.0219 46.1092 34.1525 47.7494C34.9798 48.9883 35.8902 50.3619 36.955 51.3198C37.3944 51.8225 37.8535 52.3094 38.3206 52.7883L38.5898 53.0654L38.6808 53.1565C39.1534 53.6342 39.6378 54.1001 40.1335 54.5538L40.1375 54.5577L40.1454 54.5656C40.7437 55.107 41.3575 55.631 41.986 56.1371L42.1444 56.2638C42.6985 56.7071 43.2646 57.1425 43.8464 57.5581L43.8702 57.574L43.8979 57.5938C44.0839 57.7283 44.2739 57.859 44.4639 57.9856L44.6737 58.1281C44.798 58.2103 44.9207 58.2948 45.0419 58.3815C45.4575 58.6585 45.8771 58.9238 46.3046 59.185L46.4233 59.2523L46.4827 59.2919C46.9411 59.5652 47.4043 59.8305 47.8721 60.0875L47.9948 60.1508L48.1531 60.2379C48.3589 60.3488 48.5648 60.4636 48.7785 60.5704L48.8973 60.6298C49.5096 60.9416 50.1299 61.2372 50.7577 61.5165L50.8844 61.5679C51.4735 61.8274 52.0688 62.0729 52.6696 62.3042L52.7883 62.3477C53.196 62.5061 53.6037 62.6486 54.0154 62.7911L54.2212 62.8623L54.5696 62.9771C54.7239 63.0246 54.8783 63.08 55.0287 63.1315C55.4602 63.2819 55.8916 63.4283 56.3429 63.5075C87.7483 68.9067 95 43.8108 95 43.8108C88.4648 53.58 75.806 58.2429 62.3002 54.6013C61.7021 54.4378 61.1082 54.2596 60.5189 54.0669C60.3606 54.0194 60.2023 53.964 60.0439 53.9086L59.9846 53.8888C59.5675 53.7488 59.1531 53.601 58.7416 53.4454L58.7298 53.4375C58.0467 53.179 57.3709 52.9018 56.7031 52.6063L56.4814 52.5073C55.7032 52.1555 54.9374 51.7765 54.1856 51.3713L54.0194 51.2842L53.5444 51.0308C53.1107 50.7885 52.6818 50.5378 52.2579 50.2788C51.4206 49.7674 50.602 49.2261 49.8037 48.6558C49.2272 48.2397 48.661 47.8094 48.1056 47.3654L47.9671 47.2506C47.8862 47.1852 47.8057 47.1192 47.7256 47.0527C41.8119 42.2077 37.1252 35.5854 34.9006 28.0804C32.5652 20.2904 33.0679 11.5504 37.1133 4.45709L32.1416 11.7404Z" fill="#0865A5"/>
<path d="M6.03249 22.3131C-2.37501 34.861 -1.33001 51.1892 5.09437 64.5208C5.21312 64.7781 5.34374 65.0315 5.47041 65.2808L5.56541 65.4708L5.68416 65.7044C5.78372 65.9119 5.88932 66.1165 6.00083 66.3179L6.05228 66.4169L6.32937 66.9315L6.38874 67.0383C6.58666 67.4025 6.79249 67.7667 7.00228 68.1308L7.06958 68.2496C7.38679 68.8029 7.71807 69.348 8.06312 69.8844L8.13437 70.0031L8.36791 70.3712C8.70041 70.8858 9.04083 71.4044 9.39708 71.915V71.919C9.4055 71.9314 9.41476 71.9433 9.42478 71.9546L9.51978 72.0852L9.59895 72.196C9.9077 72.6315 10.2204 73.0669 10.541 73.4944L10.8973 73.9615C11.6732 74.9669 12.4757 75.9516 13.304 76.9144L13.3277 76.9421L13.3475 76.9619L13.3752 76.9935C14.215 77.9396 15.0836 78.8597 15.9798 79.7525L16.0985 79.8712L16.3796 80.1483C16.8282 80.5868 17.2848 81.017 17.7492 81.4387L17.8798 81.5575L17.9827 81.6446C18.4781 82.0869 18.9795 82.5223 19.4869 82.9508L19.7085 83.1369C20.045 83.414 20.3854 83.691 20.7298 83.9602L21.2721 84.3917C21.6521 84.6806 22.0321 84.9656 22.416 85.2427L22.4794 85.2902L22.8356 85.5515L22.9464 85.6306C23.2948 85.884 23.6471 86.1215 24.0033 86.359L24.0587 86.3985C24.2185 86.506 24.3768 86.6155 24.5337 86.7271C25.1945 87.1608 25.8636 87.5818 26.5406 87.9898L26.7544 88.1165C27.3537 88.4705 27.9594 88.8136 28.5712 89.1456L28.781 89.2604L29.0146 89.3871C29.2481 89.5138 29.4777 89.6404 29.7152 89.7631L29.8142 89.8106L29.9329 89.87L30.0675 89.9373C30.1467 89.9769 30.2298 90.0165 30.3129 90.064C30.8037 90.3054 31.2946 90.5429 31.7933 90.7765L31.9794 90.8596L32.106 90.919C33.343 91.4823 34.6013 91.9972 35.8783 92.4627L35.9179 92.4746L36.0842 92.5379C36.9866 92.8625 37.8973 93.1634 38.8154 93.4404C39.2746 93.5948 39.7377 93.7452 40.2127 93.8362C80.8925 101.539 92.7081 68.4633 92.7081 68.4633C82.7846 81.8821 65.17 85.4248 48.4777 81.4823C47.8496 81.3299 47.2289 81.149 46.6173 80.94L46.1502 80.7935C45.5485 80.6035 44.9508 80.3977 44.3571 80.1879L44.1117 80.0969C43.5773 79.899 43.0548 79.701 42.5283 79.4873L42.085 79.3052C41.511 79.0677 40.941 78.8262 40.379 78.569L40.1969 78.4898C39.6605 78.2407 39.1274 77.9847 38.5977 77.7219L38.4354 77.6348C38.3507 77.5944 38.2663 77.5535 38.1821 77.5121L37.335 77.0648L37.0658 76.9223C36.9777 76.8742 36.8893 76.8267 36.8006 76.7798L36.3256 76.5185C35.8744 76.2692 35.431 76.004 34.9877 75.7388L34.8175 75.6398L34.5404 75.4815C33.8513 75.0563 33.1704 74.6182 32.4979 74.1673L32.3277 74.0485C30.6384 72.9222 29.0191 71.6941 27.4787 70.3712C27.0081 69.9733 26.5436 69.5682 26.0854 69.156L26.0221 69.0967C25.4204 68.5431 24.8291 67.9783 24.2487 67.4025C23.9135 67.0713 23.5836 66.7348 23.2592 66.3931L23.1246 66.2585C22.6119 65.7228 22.1104 65.1764 21.6204 64.6198L21.5967 64.596L21.5887 64.5842C21.1692 64.1092 20.7575 63.6183 20.3537 63.1275L20.0292 62.7277C19.6148 62.2138 19.2097 61.6926 18.8139 61.1642C18.4656 60.6892 18.1212 60.2221 17.7848 59.7431C8.52228 46.6252 5.19333 28.5277 12.5994 13.6681L6.03249 22.3131Z" fill="#0865A5"/>
</svg>
