<svg width="95" height="95" viewBox="0 0 512 512" fill="none" xmlns="http://www.w3.org/2000/svg">
<path d="M149.584 217.744H129.408L118.416 274.24H136.336C148.16 274.24 156.992 272 162.832 267.504C168.576 263.088 172.496 255.584 174.496 245.168C176.48 235.168 175.568 228.08 171.92 223.92C168.16 219.84 160.736 217.76 149.584 217.76V217.744ZM256 121.344C114.576 121.344 0 181.68 0 256C0 330.32 114.576 390.656 256 390.656C397.424 390.656 512 330.32 512 256C512 181.68 397.424 121.344 256 121.344ZM186.416 280.336C180.877 285.659 174.211 289.668 166.912 292.064C159.744 294.32 150.592 295.568 139.504 295.568H114.24L107.328 331.408H77.904L104.16 196.496H160.656C177.664 196.496 190.08 200.912 197.904 209.824C205.664 218.736 208.08 231.248 204.896 247.248C203.704 253.584 201.517 259.692 198.416 265.344C195.225 270.942 191.169 276.002 186.4 280.336H186.416ZM272.336 295.568L283.92 235.84C285.248 229.072 284.752 224.432 282.4 221.904C280.16 219.488 275.232 218.24 267.744 218.24H244.496L229.504 295.568H200.256L226.496 160.576H255.664L248.672 196.496H274.672C291.104 196.496 302.336 199.328 308.512 204.992C314.768 210.752 316.592 219.984 314.192 232.752L301.92 295.584L272.336 295.568ZM434.32 247.248C433.165 253.594 430.976 259.707 427.84 265.344C424.679 270.936 420.656 275.996 415.92 280.336C410.331 285.634 403.645 289.638 396.336 292.064C389.168 294.32 380 295.568 368.928 295.568H343.76L336.768 331.408H307.344L333.6 196.496H390.096C407.104 196.496 419.52 200.912 427.344 209.92C435.104 218.752 437.52 231.248 434.336 247.248H434.32ZM379.008 217.744H358.912L347.92 274.24H365.76C377.664 274.24 386.496 272 392.256 267.504C398.08 263.088 402 255.584 404.016 245.168C406 235.168 405.088 228.08 401.328 223.92C397.68 219.84 390.176 217.76 379.008 217.76V217.744Z" fill="#34548F"/>
</svg>
