<svg width="95" height="95" viewBox="0 0 512 512" fill="none" xmlns="http://www.w3.org/2000/svg">
<path d="M254.16 33.6C140.56 33.6 147.744 82.72 147.744 82.72V133.76H255.776V149.76H104.72C104.72 149.76 32 140.8 32 256.08C32 371.36 96.208 366.672 96.208 366.672H133.28V312.896C133.28 312.896 131.2 248.688 195.68 248.688H303.872C303.872 248.688 364.224 249.648 364.224 190.256V92.8C364.224 92.8 373.376 33.408 254.752 33.408L254.16 33.6ZM194.448 67.792C198.289 67.6951 202.072 68.7393 205.319 70.7925C208.566 72.8458 211.131 75.8159 212.691 79.3272C214.25 82.8384 214.732 86.7332 214.078 90.5189C213.423 94.3046 211.661 97.8112 209.014 100.595C206.366 103.379 202.952 105.316 199.204 106.159C195.456 107.003 191.542 106.717 187.957 105.336C184.372 103.955 181.277 101.542 179.063 98.4025C176.849 95.2625 175.616 91.5366 175.52 87.696V87.376C175.52 82.2244 177.566 77.2839 181.209 73.6411C184.852 69.9984 189.792 67.952 194.944 67.952L194.448 67.792Z" fill="url(#paint0_linear)"/>
<path d="M257.36 478.56C370.96 478.56 363.776 429.28 363.776 429.28V378.4H255.76V362.4H407.28C407.28 362.4 480 370.528 480 255.92C480 141.312 415.792 145.328 415.792 145.328H378.24V198.4C378.24 198.4 380.32 262.608 315.84 262.608H207.6C207.6 262.608 147.2 261.696 147.2 321.088V419.2C147.2 419.2 138.048 478.592 256.672 478.592H257.312L257.36 478.56ZM317.072 444.208C313.231 444.305 309.448 443.261 306.201 441.207C302.954 439.154 300.389 436.184 298.83 432.673C297.27 429.162 296.788 425.267 297.442 421.481C298.097 417.695 299.859 414.189 302.507 411.405C305.154 408.621 308.568 406.684 312.316 405.841C316.064 404.997 319.978 405.283 323.563 406.664C327.148 408.045 330.243 410.458 332.457 413.598C334.671 416.737 335.904 420.463 336 424.304V424.784C336 429.936 333.954 434.876 330.311 438.519C326.668 442.162 321.728 444.208 316.576 444.208H317.056H317.072Z" fill="url(#paint1_linear)"/>
<defs>
<linearGradient id="paint0_linear" x1="76.2746" y1="77.1664" x2="288.861" y2="289.271" gradientUnits="userSpaceOnUse">
<stop stop-color="#387EB8"/>
<stop offset="1" stop-color="#366994"/>
</linearGradient>
<linearGradient id="paint1_linear" x1="202.04" y1="215.337" x2="444.923" y2="427.378" gradientUnits="userSpaceOnUse">
<stop stop-color="#FFE052"/>
<stop offset="1" stop-color="#FFC331"/>
</linearGradient>
</defs>
</svg>
