<svg width="95" height="95" viewBox="0 0 575 512" fill="none" xmlns="http://www.w3.org/2000/svg">
<g clip-path="url(#clip0)">
<path d="M472.665 165.78C466.547 163.681 460.377 161.737 454.161 159.948C455.205 155.682 456.167 151.467 457.02 147.326C471.028 79.3263 461.87 24.5445 430.591 6.50776C400.601 -10.7835 351.555 7.24657 302.021 50.3556C297.139 54.6118 292.366 58.9907 287.705 63.488C284.585 60.4974 281.41 57.5649 278.181 54.6919C226.267 8.59843 174.232 -10.8284 142.986 7.26005C113.023 24.6052 104.151 76.1038 116.762 140.548C118.017 146.931 119.434 153.281 121.011 159.591C113.645 161.684 106.538 163.912 99.7359 166.283C38.8708 187.504 0.00146484 220.76 0.00146484 255.254C0.00146484 290.881 41.7295 326.616 105.123 348.284C110.263 350.033 115.445 351.654 120.665 353.145C118.97 359.942 117.465 366.785 116.151 373.666C104.128 436.992 113.517 487.274 143.4 504.509C174.263 522.307 226.065 504.015 276.504 459.922C280.594 456.337 284.594 452.651 288.5 448.867C293.547 453.737 298.729 458.465 304.04 463.046C352.9 505.088 401.153 522.065 431.007 504.783C461.841 486.932 471.863 432.916 458.852 367.198C457.827 362.05 456.678 356.927 455.405 351.834C459.043 350.756 462.614 349.647 466.094 348.492C531.999 326.658 574.879 291.357 574.879 255.254C574.879 220.634 534.754 187.154 472.665 165.78V165.78ZM458.372 325.183C455.228 326.223 452.003 327.226 448.716 328.203C441.44 305.17 431.622 280.679 419.606 255.373C431.072 230.672 440.512 206.493 447.584 183.61C453.465 185.313 459.171 187.107 464.673 189C517.871 207.315 550.321 234.39 550.321 255.254C550.321 277.477 515.276 306.326 458.372 325.183V325.183ZM434.761 371.968C440.515 401.026 441.334 427.3 437.523 447.841C434.101 466.297 427.216 478.601 418.701 483.53C400.585 494.017 361.842 480.386 320.058 444.429C315.118 440.17 310.298 435.775 305.603 431.248C321.802 413.532 337.991 392.938 353.791 370.064C381.583 367.598 407.839 363.565 431.649 358.061C432.821 362.792 433.863 367.432 434.761 371.968V371.968ZM195.99 481.718C178.29 487.967 164.192 488.147 155.67 483.234C137.536 472.776 129.998 432.402 140.28 378.247C141.503 371.847 142.902 365.483 144.478 359.161C168.025 364.371 194.09 368.117 221.947 370.376C237.855 392.758 254.51 413.33 271.296 431.344C267.729 434.796 264.077 438.16 260.344 441.432C238.039 460.928 215.688 474.761 195.99 481.718V481.718ZM113.068 325.046C85.0361 315.464 61.8861 303.012 46.0186 289.424C31.7589 277.214 24.5617 265.09 24.5617 255.254C24.5617 234.321 55.769 207.62 107.82 189.474C114.137 187.273 120.748 185.196 127.608 183.247C134.803 206.646 144.24 231.112 155.627 255.852C144.091 280.958 134.52 305.814 127.256 329.49C122.491 328.125 117.76 326.643 113.068 325.046V325.046ZM140.864 135.83C130.061 80.6175 137.235 38.9681 155.292 28.5148C174.524 17.381 217.051 33.2553 261.876 73.0565C264.799 75.6578 267.675 78.3118 270.501 81.0172C253.799 98.953 237.296 119.372 221.529 141.622C194.492 144.128 168.611 148.152 144.817 153.544C143.351 147.674 142.033 141.769 140.864 135.833V135.83ZM388.841 197.064C383.221 187.356 377.392 177.77 371.359 168.313C389.701 170.633 407.275 173.712 423.778 177.475C418.824 193.356 412.649 209.958 405.38 226.98C400.066 216.899 394.552 206.925 388.841 197.064V197.064ZM287.716 98.569C299.043 110.841 310.388 124.542 321.546 139.408C298.911 138.339 276.237 138.334 253.601 139.394C264.771 124.665 276.212 110.983 287.716 98.569ZM185.943 197.232C180.303 207.014 174.891 216.926 169.714 226.96C162.564 209.999 156.444 193.32 151.448 177.215C167.85 173.546 185.341 170.545 203.566 168.268C197.466 177.783 191.59 187.44 185.943 197.23V197.232ZM204.09 343.988C185.26 341.886 167.506 339.041 151.109 335.47C156.184 319.077 162.438 302.044 169.743 284.719C174.941 294.761 180.375 304.679 186.039 314.465C191.864 324.525 197.896 334.379 204.09 343.988ZM288.394 413.669C276.753 401.112 265.143 387.218 253.805 372.276C264.813 372.707 276.035 372.927 287.44 372.927C299.158 372.927 310.741 372.664 322.142 372.157C310.947 387.368 299.645 401.282 288.394 413.669ZM405.611 283.834C413.296 301.35 419.772 318.293 424.914 334.406C408.247 338.21 390.251 341.273 371.289 343.547C377.365 333.915 383.249 324.163 388.937 314.296C394.721 304.267 400.28 294.111 405.611 283.834V283.834ZM367.665 302.026C358.957 317.153 349.759 331.994 340.086 346.523C322.565 347.764 305.005 348.38 287.44 348.371C269.549 348.371 252.148 347.814 235.391 346.727C225.466 332.231 216.093 317.365 207.292 302.161H207.294C198.534 287.037 190.352 271.586 182.765 255.841C190.333 240.092 198.49 224.633 207.22 209.498L207.218 209.5C215.944 194.361 225.242 179.558 235.093 165.124C252.188 163.831 269.72 163.157 287.438 163.157H287.44C305.239 163.157 322.793 163.838 339.884 165.14C349.635 179.552 358.874 194.304 367.584 209.368C376.343 224.47 384.608 239.853 392.366 255.492C384.688 271.292 376.448 286.813 367.665 302.026V302.026ZM418.326 27.7827C437.575 38.885 445.062 83.6558 432.967 142.367C432.195 146.113 431.328 149.928 430.385 153.798C406.532 148.291 380.633 144.198 353.517 141.653C337.722 119.159 321.353 98.7082 304.922 81.0038C309.228 76.8528 313.637 72.8094 318.144 68.8775C360.586 31.9438 400.253 17.3608 418.326 27.7827V27.7827ZM287.44 203.92C315.791 203.92 338.775 226.904 338.775 255.254C338.775 283.605 315.791 306.589 287.44 306.589C259.089 306.589 236.105 283.605 236.105 255.254C236.105 226.904 259.089 203.92 287.44 203.92V203.92Z" fill="#00D8FF"/>
</g>
<defs>
<clipPath id="clip0">
<rect width="574.88" height="512" fill="white"/>
</clipPath>
</defs>
</svg>
