<svg width="95" height="95" viewBox="0 0 512 512" fill="none" xmlns="http://www.w3.org/2000/svg">
<path fill-rule="evenodd" clip-rule="evenodd" d="M256 32C300.303 32 343.611 45.1374 380.448 69.7508C417.284 94.3642 445.995 129.348 462.949 170.279C479.903 211.21 484.339 256.248 475.696 299.7C467.053 343.152 445.719 383.065 414.392 414.392C383.065 445.719 343.152 467.053 299.7 475.696C256.248 484.339 211.21 479.903 170.279 462.949C129.348 445.995 94.3642 417.284 69.7508 380.448C45.1374 343.611 32 300.303 32 256C32 196.592 55.5999 139.616 97.6081 97.6081C139.616 55.5999 196.592 32 256 32V32Z" fill="#CC6699"/>
<path d="M396.512 127.872C386.368 88.096 320.4 75.072 257.968 97.184C218.869 110.322 182.745 131.043 151.664 158.16C117.28 190.32 111.792 218.32 114.048 230.016C122.048 271.296 178.576 298.272 201.824 318.288V318.4C194.976 321.776 144.8 347.2 133.024 373.12C120.64 400.512 134.992 420.16 144.512 422.8C158.805 426.241 173.817 425.121 187.441 419.597C201.066 414.074 212.619 404.423 220.48 392C226.977 381.935 231.042 370.495 232.353 358.587C233.663 346.679 232.184 334.629 228.032 323.392C239.23 320.547 250.87 319.879 262.32 321.424C301.616 326.016 309.328 350.544 307.856 360.816C307.164 364.472 305.692 367.937 303.542 370.974C301.391 374.011 298.611 376.549 295.392 378.416C292.64 380.128 291.792 380.704 292.032 381.984C292.368 383.824 293.632 383.76 295.984 383.36C301.889 381.5 307.093 377.895 310.908 373.02C314.724 368.144 316.974 362.227 317.36 356.048C318.304 332.048 295.248 305.072 254.416 305.76C242.557 305.421 230.723 307.043 219.392 310.56C218.825 309.912 218.249 309.272 217.664 308.64C192.416 281.712 145.76 262.656 147.728 226.448C148.448 213.28 153.024 178.624 237.328 136.576C306.448 102.128 361.776 111.616 371.344 132.624C385.008 162.64 341.776 218.4 270 226.448C262.067 228.058 253.873 227.862 246.026 225.873C238.179 223.885 230.881 220.155 224.672 214.96C220.896 210.8 220.336 210.624 218.928 211.392C216.64 212.656 218.096 216.336 218.928 218.512C221.676 223.465 225.386 227.82 229.84 231.32C234.294 234.82 239.402 237.396 244.864 238.896C273.085 245.028 302.519 242.117 328.992 230.576C372.528 213.792 406.48 166.992 396.512 127.872V127.872ZM211.488 330.608C214.666 341.563 214.504 353.217 211.024 364.08C210.651 365.211 210.24 366.331 209.792 367.44C209.344 368.549 208.859 369.616 208.336 370.64C205.643 376.149 202.155 381.233 197.984 385.728C184.976 399.92 166.784 405.296 158.992 400.768C150.576 395.888 154.784 375.872 169.872 359.92C181.465 348.456 194.832 338.936 209.456 331.728L211.488 330.608Z" fill="white"/>
</svg>
