<svg width="126" height="95" viewBox="0 0 126 95" fill="none" xmlns="http://www.w3.org/2000/svg">
<path d="M86.1316 9.62917C85.5173 9.62917 85.1078 9.72096 84.6943 9.83461V9.90454H84.7573C85.0448 10.4946 85.5173 10.9536 85.8835 11.5C86.1709 12.1163 86.4151 12.7501 86.6828 13.3664L86.7655 13.2746C87.2577 12.8856 87.5058 12.2736 87.5058 11.3382C87.301 11.0629 87.2577 10.77 87.0766 10.5165C86.8718 10.1275 86.419 9.9264 86.1316 9.62917ZM30.2882 86.5289H25.4292C25.282 77.9435 24.8104 69.3687 24.0156 60.8272H23.9762L16.5735 86.5289H12.8603L5.51661 60.8272H5.45361C4.88291 69.3813 4.5415 77.9523 4.42983 86.5289H0C0.239865 75.7506 0.958699 64.9921 2.15388 54.2925H8.18238L15.1953 77.9704H15.2347L22.3106 54.2925H28.0516C29.3235 66.0418 30.0834 76.7859 30.3079 86.5289H30.2882ZM51.3702 62.7417C49.4014 74.6703 46.775 83.3468 43.558 88.7407C41.0143 92.9063 38.2461 95 35.2299 95C34.4306 95 33.4462 94.7246 32.257 94.1782V91.3108C32.8516 91.4026 33.5289 91.4682 34.2888 91.4682C35.7024 91.4682 36.8325 91.0136 37.6949 90.17C38.7186 89.1209 39.2345 87.9408 39.2345 86.6426C39.2345 85.7334 38.8446 83.9107 38.0256 81.135L32.7138 62.7417H37.494L41.3096 76.493C42.1719 79.6358 42.5421 81.7994 42.3767 83.0496C44.4873 76.8558 45.9442 70.0719 46.7671 62.7417H51.3702ZM116.093 86.5289H102.272V54.2925H106.926V82.5687H116.093V86.5289ZM98.6611 87.307L93.3295 84.3915C93.8021 83.9587 94.2509 83.4823 94.6644 82.9359C96.9403 79.9986 98.0704 75.6057 98.0704 69.8228C98.0704 59.1443 94.2982 53.8204 86.7498 53.8204C83.0563 53.8204 80.1661 55.1623 78.0949 57.8724C75.8386 60.8316 74.6888 65.2026 74.6888 70.9636C74.6888 76.6329 75.6929 80.7766 77.7051 83.4386C79.5518 85.8077 82.32 87.0141 86.0331 87.0141C87.4074 87.0141 88.6792 86.8305 89.829 86.4459L96.7828 90.9524L98.6886 87.3113L98.6611 87.307ZM81.3749 80.0641C80.1858 77.9704 79.6109 74.6003 79.6109 69.9539C79.6109 61.8281 81.8277 57.7762 86.2773 57.7762C88.5965 57.7762 90.3173 58.7553 91.404 60.6917C92.5735 62.8073 93.1681 66.1336 93.1681 70.732C93.1681 78.9058 90.9315 83.0277 86.5017 83.0277C84.1628 83.0277 82.4617 82.0486 81.3552 80.1122L81.3749 80.0641ZM72.6767 77.6076C72.6767 80.3395 71.775 82.595 69.9479 84.3215C68.1445 86.0743 65.7426 86.9616 62.687 86.9616C59.8361 86.9616 57.1073 85.9607 54.4219 83.9544L55.6741 81.1788C57.9697 82.4551 60.0409 83.0933 61.9309 83.0933C63.6753 83.0933 65.0495 82.6605 66.0339 81.8169C67.0183 80.9515 67.6129 79.7451 67.6129 78.2196C67.6129 76.305 66.4041 74.6659 64.2069 73.3021C62.1751 72.052 58.0957 69.4775 58.0957 69.4775C55.8788 67.681 54.792 65.7665 54.792 62.6018C54.792 59.9836 55.611 57.8898 57.253 56.2944C58.9147 54.6553 61.0253 53.8597 63.6517 53.8597C66.2647 53.8346 68.8262 54.6663 71.015 56.2507L69.8889 59.0263C68.1295 58.1663 66.2316 57.7098 64.3093 57.6844C62.813 57.6844 61.6632 58.0953 60.8638 58.8908C60.0645 59.6863 59.5723 60.6873 59.5723 61.9418C59.5723 63.8563 60.8048 65.4955 63.0571 66.9029C65.1283 68.1531 69.2904 70.7975 69.2904 70.7975C71.5663 72.5722 72.6964 74.4867 72.6964 77.6032L72.6767 77.6076ZM121.921 43.4829C119.109 43.413 116.936 43.732 115.112 44.5975C114.601 44.8248 113.758 44.8248 113.675 45.5548C113.963 45.8739 114.002 46.3765 114.25 46.8049C114.679 47.5786 115.4 48.6276 116.077 49.174C116.817 49.8122 117.554 50.4503 118.314 50.9967C119.688 51.9321 121.228 52.4785 122.578 53.4095C123.338 53.9559 124.118 54.6596 124.874 55.2323C125.264 55.5295 125.508 56.054 126 56.2332V56.1196C125.752 55.7786 125.693 55.276 125.445 54.8695C125.094 54.4804 124.748 54.1395 124.397 53.7548C123.37 52.2414 122.139 50.913 120.747 49.8165C119.621 48.9729 117.16 47.7884 116.707 46.3547L116.644 46.2629C117.404 46.1929 118.306 45.8739 119.042 45.6466C120.231 45.3056 121.338 45.3712 122.57 45.0302C123.136 44.8674 123.696 44.6851 124.252 44.4839V44.1429C123.618 43.4392 123.145 42.4819 122.488 41.8219C120.676 40.0618 118.742 38.4629 116.703 37.04C115.597 36.2444 114.203 35.7418 113.033 35.0817C112.624 34.8545 111.907 34.7408 111.679 34.3518C111.045 33.4863 110.675 32.3717 110.222 31.3445C109.192 29.1223 108.234 26.8595 107.351 24.5606C106.717 23.0352 106.347 21.5315 105.568 20.1197C101.957 13.4932 98.0193 9.4893 91.9908 5.55099C90.6992 4.72923 89.1399 4.38829 87.4979 3.95555C86.6159 3.91184 85.7536 3.84191 84.8715 3.7982C84.2966 3.52282 83.7454 2.79723 83.2532 2.43006C81.245 1.01821 76.0749 -2.01092 74.618 1.99733C73.6729 4.54565 76.0119 7.0284 76.8348 8.30474C77.4294 9.21392 78.1894 10.2193 78.6186 11.2202C78.8666 11.9021 78.9257 12.6102 79.1738 13.314C79.729 15.023 80.2606 16.9332 81.0008 18.5286C81.3907 19.3504 81.8002 20.2115 82.2924 20.9414C82.5798 21.3742 83.072 21.5577 83.1744 22.2615C82.6822 23.057 82.6428 24.2197 82.3751 25.177C81.1032 29.5917 81.5954 35.0337 83.3792 38.2901C83.9541 39.2692 85.285 41.411 87.0727 40.5893C88.6516 39.8855 88.3051 37.6738 88.754 35.7156C88.8564 35.2391 88.7934 34.9419 89.0021 34.6228V34.7146C89.514 35.8073 90.0062 36.8564 90.459 37.9492C91.5261 39.8637 93.4319 41.8437 95.0109 43.1638C95.8536 43.8675 96.5072 45.0783 97.5546 45.5067V45.393H97.4719C97.2475 45.0521 96.96 44.8904 96.6726 44.6194C96.0076 43.8881 95.3905 43.1052 94.8258 42.2765C93.3689 40.091 92.0577 37.6781 90.9079 35.1954C90.354 33.9687 89.8482 32.7159 89.3919 31.4407C89.1872 30.9861 89.1872 30.278 88.8367 30.0507C88.3051 30.8943 87.5255 31.6199 87.1554 32.6908C86.4781 34.3518 86.4151 36.4237 86.1513 38.5655C86.0292 38.6092 86.0883 38.5655 86.0292 38.6573C84.903 38.3382 84.5132 37.0618 84.0998 35.9691C83.0327 33.1935 82.8673 28.7525 83.7729 25.566C84.021 24.7442 85.0645 22.1741 84.655 21.4004C84.4305 20.6486 83.7336 20.2158 83.3634 19.6257C82.8909 18.8958 82.4184 17.9647 82.0916 17.143C81.2489 14.9575 80.8394 12.5447 79.918 10.3591C79.5085 9.35816 78.7682 8.30911 78.1736 7.37808C77.4964 6.32903 76.76 5.58158 76.2442 4.34895C76.0591 3.91622 75.815 3.21248 76.1024 2.75352C76.1654 2.43443 76.3072 2.32079 76.5946 2.22899C77.0475 1.79626 78.3587 2.34264 78.8115 2.59179C80.1031 3.16003 81.1899 3.70641 82.2766 4.52816C82.7688 4.91718 83.3004 5.64278 83.9383 5.84822H84.6786C85.8047 6.12359 87.0569 5.91815 88.1043 6.28095C89.9707 6.94098 91.6521 7.89823 93.1681 8.94291C97.8042 12.2465 101.574 16.8478 104.099 22.2833C104.528 23.1707 104.713 23.9924 105.103 24.9234C105.82 26.8598 106.745 28.7918 107.481 30.6364C108.218 32.481 108.919 34.3474 109.982 35.8729C110.513 36.6947 112.608 37.123 113.569 37.5339C114.266 37.8967 115.353 38.2158 115.967 38.6267C117.176 39.4484 118.365 40.3795 119.495 41.2886C120.07 41.7214 121.814 42.7005 121.917 43.4741L121.921 43.4829Z" fill="#699BF7"/>
</svg>
