<svg width="64" height="64" viewBox="0 0 246 246" fill="none" xmlns="http://www.w3.org/2000/svg">
<path d="M123 0.119999C55.1344 0.119999 0.119998 55.1344 0.119998 123C0.119998 190.866 55.1344 245.88 123 245.88C190.866 245.88 245.88 190.866 245.88 123C245.88 55.1344 190.866 0.119999 123 0.119999ZM92.92 173.931H68.0368V93.8544H92.92V173.931ZM80.3248 84.024C72.4656 84.024 67.384 78.456 67.384 71.5696C67.384 64.5424 72.6192 59.1408 80.6448 59.1408C88.6704 59.1408 93.5856 64.5424 93.7392 71.5696C93.7392 78.456 88.6704 84.024 80.3248 84.024ZM183.8 173.931H158.917V129.554C158.917 119.224 155.307 112.21 146.309 112.21C139.435 112.21 135.352 116.958 133.547 121.528C132.882 123.154 132.715 125.458 132.715 127.749V173.918H107.819V119.39C107.819 109.394 107.499 101.035 107.166 93.8416H128.786L129.925 104.965H130.424C133.701 99.7424 141.726 92.0368 155.154 92.0368C171.525 92.0368 183.8 103.006 183.8 126.584V173.931V173.931Z" fill="white"/>
</svg>
