<?xml version="1.0" standalone="no"?>
<!DOCTYPE svg PUBLIC "-//W3C//DTD SVG 20010904//EN"
 "http://www.w3.org/TR/2001/REC-SVG-20010904/DTD/svg10.dtd">
<svg version="1.0" xmlns="http://www.w3.org/2000/svg"
 width="1400.000000pt" height="833.000000pt" viewBox="0 0 1400.000000 833.000000"
 preserveAspectRatio="xMidYMid meet">

<g transform="translate(0.000000,833.000000) scale(0.100000,-0.100000)"
fill="#000000" stroke="none">
<path d="M2723 8256 c-60 -19 -103 -53 -124 -100 -18 -40 -19 -141 -19 -3208
0 -2219 3 -3175 11 -3195 14 -38 46 -71 94 -96 l40 -22 1179 -3 1179 -2 68
-51 c38 -28 69 -57 69 -64 0 -7 -13 -51 -29 -97 -215 -608 -431 -1244 -427
-1255 7 -18 1602 -20 1608 -2 2 7 -6 75 -18 153 -12 77 -50 325 -85 549 -69
446 -69 426 -4 427 88 1 282 69 336 117 38 35 85 100 77 108 -2 3 -38 12 -79
20 -98 21 -301 20 -430 -1 -85 -14 -113 -15 -185 -5 -297 42 -581 203 -749
427 -31 41 -78 120 -105 177 -129 275 -143 568 -45 959 189 753 538 1275 1169
1753 107 81 123 90 162 90 47 1 75 21 154 116 l39 45 -16 48 c-20 60 -7 113
38 150 63 53 119 43 147 -25 l17 -40 50 7 c78 10 198 53 282 101 l77 44 18
-23 c34 -44 13 -149 -50 -253 -39 -63 -40 -70 -29 -229 2 -37 0 -39 -42 -55
-39 -14 -50 -26 -88 -91 -52 -88 -105 -147 -150 -166 -75 -32 -168 -7 -270 74
l-51 41 -14 -22 c-37 -58 -82 -191 -97 -288 -8 -46 -6 -50 35 -102 23 -30 107
-153 187 -273 190 -289 256 -353 385 -370 l51 -6 -15 58 c-18 69 -120 268
-239 466 l-85 142 0 77 0 77 33 6 c70 13 300 36 452 46 390 24 916 3 1298 -53
48 -7 87 -11 87 -9 0 2 -16 26 -35 52 -19 26 -35 51 -35 55 0 4 53 59 118 123
353 352 627 654 723 801 l15 24 51 -27 c64 -35 208 -161 294 -257 386 -434
614 -922 728 -1559 25 -140 51 -356 51 -427 l0 -52 -57 -39 c-70 -47 -394
-241 -630 -377 l-173 -100 -2 -55 c-2 -30 -1 -77 0 -105 4 -81 -18 -303 -39
-403 -25 -113 -48 -183 -97 -286 l-37 -79 -242 7 c-134 3 -243 5 -243 3 0 -2
31 -25 70 -51 65 -43 74 -46 135 -46 l65 0 0 -710 0 -710 -850 0 -850 0 0 780
0 780 -30 0 -31 0 7 -802 c5 -567 10 -805 18 -810 13 -9 1747 -11 1770 -2 14
6 16 80 16 740 l0 734 565 0 c463 0 565 2 565 13 0 8 10 23 23 35 19 18 35 22
94 22 85 0 197 -20 273 -49 53 -20 73 -21 478 -21 412 0 423 1 417 19 -14 45
-24 138 -19 172 9 57 45 111 98 146 101 68 164 65 213 -8 27 -41 43 -43 43 -4
0 42 29 100 59 118 64 38 142 14 181 -55 29 -52 24 -131 -13 -208 -14 -30 -25
-56 -23 -57 2 -2 51 13 110 32 58 19 112 34 118 32 7 -1 12 5 13 13 1 8 6 14
12 13 14 -3 2 52 -40 173 -35 101 -59 224 -38 194 8 -11 10 -5 8 25 -1 27 2
39 10 38 7 -2 10 3 7 10 -6 18 41 61 57 52 8 -5 10 -4 5 3 -8 14 37 27 55 16
8 -4 9 -3 5 4 -5 8 0 12 13 12 12 0 21 -5 21 -12 0 -9 3 -9 12 0 14 14 82 16
73 2 -3 -6 1 -7 9 -4 9 4 18 -1 22 -10 3 -9 10 -13 15 -10 12 7 56 -42 79 -87
28 -53 50 -150 50 -215 0 -66 -17 -137 -30 -129 -4 3 -6 -5 -2 -17 3 -14 1
-19 -6 -14 -7 4 -10 2 -6 -7 3 -8 -8 -28 -23 -45 -15 -16 -30 -36 -32 -44 -9
-26 0 -119 10 -112 9 5 19 -22 19 -50 0 -13 8 -38 17 -57 25 -49 24 -181 -1
-234 -20 -43 -63 -101 -109 -148 -16 -16 -26 -31 -24 -34 6 -6 84 78 116 125
53 78 64 178 31 284 -11 34 -20 66 -20 71 0 4 190 7 423 7 274 0 436 4 462 11
49 14 101 51 126 93 19 30 19 98 19 3209 0 3475 5 3216 -59 3270 -74 62 392
57 -5590 56 -4450 0 -5464 -3 -5498 -13z m727 -224 c19 -9 45 -33 58 -52 20
-29 23 -44 20 -88 -4 -45 -10 -59 -42 -90 -34 -35 -40 -37 -100 -37 -55 0 -68
4 -91 25 -42 39 -58 78 -52 128 3 24 13 56 24 71 24 33 79 61 118 61 17 0 46
-8 65 -18z m768 -11 c39 -27 67 -98 58 -145 -13 -69 -73 -116 -148 -116 -155
0 -196 212 -53 276 40 19 106 12 143 -15z m782 11 c95 -47 107 -165 25 -242
-23 -21 -36 -25 -91 -25 -60 0 -66 2 -100 37 -32 31 -38 45 -42 90 -3 44 0 59
20 88 27 40 79 70 123 70 17 0 46 -8 65 -18z m-1305 -3427 c0 -2126 -3 -2669
-12 -2672 -10 -4 -13 535 -13 2672 0 2137 3 2676 13 2673 9 -4 12 -547 12
-2673z m695 2510 c7 -9 10 -28 6 -47 -9 -48 -124 -278 -142 -285 -9 -3 -24 3
-36 15 l-21 20 68 144 c78 164 96 187 125 153z m225 -46 c22 -22 55 -49 73
-60 47 -30 43 -58 -19 -112 -27 -24 -67 -54 -88 -65 -34 -19 -39 -20 -59 -6
-36 25 -28 59 23 95 25 18 45 33 45 34 0 1 -18 21 -40 44 -43 45 -49 70 -24
95 25 25 47 19 89 -25z m-507 9 c21 -21 13 -51 -24 -89 l-37 -37 37 -38 c39
-40 41 -46 26 -75 -17 -31 -61 -24 -101 17 -18 20 -46 42 -61 50 -45 23 -36
50 40 120 66 62 97 75 120 52z m4298 -36 c30 -15 48 -34 64 -68 21 -43 22 -55
17 -168 -10 -204 -64 -382 -128 -429 -24 -17 -44 -19 -190 -18 -90 1 -243 5
-339 11 -255 14 -522 13 -542 -2 -9 -7 -57 -74 -106 -148 -95 -145 -113 -165
-137 -156 -22 8 -18 49 16 166 54 184 59 204 59 255 -1 28 -7 79 -15 115 -8
36 -14 104 -15 151 0 198 72 286 257 308 43 5 290 8 548 7 461 -2 471 -2 511
-24z m-1731 -287 c93 -20 142 -55 180 -130 29 -57 30 -63 29 -184 -1 -88 -7
-140 -18 -171 -9 -25 -21 -103 -26 -175 -6 -71 -13 -139 -16 -150 -9 -30 -35
-55 -56 -55 -22 0 -33 24 -48 101 -6 31 -17 64 -24 74 -19 26 -88 29 -291 11
-99 -9 -218 -16 -264 -16 l-84 0 -38 39 c-56 60 -98 210 -114 411 -15 186 35
247 215 261 144 11 473 2 555 -16z m-1097 -453 c8 -54 45 -52 -829 -52 -721 0
-809 2 -823 16 -19 19 -20 36 -4 52 9 9 203 12 833 10 l820 -3 3 -23z m3870
-660 c8 -54 40 -52 -762 -52 -769 0 -766 0 -766 40 0 40 -5 40 775 38 l750 -3
3 -23z m-4797 -2616 c3 -3 3 -23 1 -45 l-4 -41 -353 0 c-308 0 -356 2 -369 16
-22 21 -20 40 6 58 19 14 71 16 369 16 190 0 348 -2 350 -4z m909 -1664 c47
-16 126 -39 175 -50 100 -23 315 -44 368 -35 19 3 37 1 40 -3 3 -5 17 -83 31
-174 14 -91 50 -324 81 -519 30 -194 55 -360 55 -367 0 -12 -122 -14 -741 -14
-589 0 -740 3 -736 13 2 6 102 293 221 636 119 343 219 628 222 632 3 5 49
-13 102 -40 53 -27 135 -62 182 -79z"/>
<path d="M7753 6783 c9 -2 25 -2 35 0 9 3 1 5 -18 5 -19 0 -27 -2 -17 -5z"/>
<path d="M7518 6703 c7 -3 16 -2 19 1 4 3 -2 6 -13 5 -11 0 -14 -3 -6 -6z"/>
<path d="M7556 6608 c3 -4 9 -8 15 -8 5 0 9 4 9 8 0 5 -7 9 -15 9 -8 0 -12 -4
-9 -9z"/>
<path d="M8158 6603 c7 -3 16 -2 19 1 4 3 -2 6 -13 5 -11 0 -14 -3 -6 -6z"/>
<path d="M6144 6438 c-19 -23 -19 -23 1 -7 11 10 29 19 40 22 19 4 19 5 -1 6
-11 0 -29 -9 -40 -21z"/>
<path d="M6330 6450 c-11 -8 -7 -9 15 -4 37 8 45 14 19 14 -10 0 -26 -5 -34
-10z"/>
<path d="M6400 6450 c-9 -6 -10 -10 -3 -10 6 0 15 5 18 10 8 12 4 12 -15 0z"/>
<path d="M6543 6452 c-7 -4 8 -7 32 -7 25 1 46 3 49 6 8 8 -69 9 -81 1z"/>
<path d="M6494 6386 c11 -9 34 -15 50 -15 31 1 31 1 -4 8 -20 4 -42 11 -50 15
-8 4 -6 0 4 -8z"/>
<path d="M6291 6379 c13 -8 88 -14 78 -5 -2 2 -24 6 -48 9 -29 4 -40 2 -30 -4z"/>
<path d="M6415 6300 c-3 -5 -20 -14 -38 -19 -23 -7 -26 -9 -11 -10 12 -1 32 8
45 19 13 10 21 19 17 20 -4 0 -10 -4 -13 -10z"/>
<path d="M6099 6288 c15 -19 57 -23 81 -8 10 6 3 8 -22 3 -25 -4 -44 -1 -55 8
-16 13 -17 12 -4 -3z"/>
<path d="M6270 6280 c8 -5 22 -9 30 -9 10 0 8 3 -5 9 -27 12 -43 12 -25 0z"/>
<path d="M6478 6278 c5 -5 16 -8 23 -6 8 3 3 7 -10 11 -17 4 -21 3 -13 -5z"/>
<path d="M6580 6280 c-23 -7 -23 -8 -3 -9 12 -1 25 4 28 9 3 6 5 10 3 9 -2 -1
-14 -5 -28 -9z"/>
<path d="M9358 5332 c-92 -121 -272 -318 -530 -579 l-219 -223 66 -91 c204
-285 398 -743 504 -1189 42 -176 68 -315 101 -538 15 -106 30 -196 33 -199 3
-3 41 14 84 38 292 159 814 462 996 578 l89 56 -6 100 c-22 348 -140 825 -285
1154 -144 326 -436 726 -659 903 -112 88 -98 89 -174 -10z m110 -205 c4 -20
-25 -34 -40 -19 -15 15 -1 44 19 40 10 -2 19 -11 21 -21z m142 -78 c0 -8 -12
-10 -35 -6 -34 6 -35 5 -35 -28 0 -19 -4 -37 -10 -40 -6 -4 -10 12 -10 39 l0
46 45 0 c27 0 45 -5 45 -11z m-280 -44 c15 -18 5 -35 -21 -35 -12 0 -19 7 -19
18 0 33 20 42 40 17z m335 -4 c-12 -11 -111 -51 -127 -51 -20 0 1 14 55 36 56
24 87 30 72 15z m-5 -66 c0 -39 -21 -47 -56 -20 -18 15 -18 15 9 9 22 -5 27
-3 27 13 0 18 8 33 17 33 2 0 3 -16 3 -35z m-164 -122 c-9 -10 -136 118 -129
130 3 6 35 -20 71 -57 36 -37 62 -70 58 -73z m-288 64 c4 -20 -25 -34 -40 -19
-15 15 -1 44 19 40 10 -2 19 -11 21 -21z m-134 -106 c9 -14 -4 -41 -19 -41
-18 0 -28 17 -21 35 6 17 32 20 40 6z m-119 -121 c9 -15 -14 -40 -31 -33 -22
8 -18 43 5 43 11 0 23 -5 26 -10z m96 -148 c71 -76 181 -220 195 -255 15 -41
-19 -11 -69 61 -65 91 -194 242 -208 242 -5 0 -9 7 -9 15 0 28 17 16 91 -63z
m-233 25 c4 -20 -25 -34 -40 -19 -15 15 -1 44 19 40 10 -2 19 -11 21 -21z
m515 -418 c44 -71 167 -302 167 -312 0 -4 -4 -7 -9 -7 -5 0 -33 44 -62 98 -28
53 -76 138 -105 189 -30 51 -54 95 -54 98 0 21 29 -10 63 -66z"/>
<path d="M7778 3663 c7 -3 16 -2 19 1 4 3 -2 6 -13 5 -11 0 -14 -3 -6 -6z"/>
<path d="M7890 3253 c0 -39 13 -63 32 -63 17 0 19 4 13 33 -10 43 -45 67 -45
30z"/>
<path d="M7140 3095 c-226 -82 -381 -134 -420 -140 l-44 -7 29 -25 c56 -45
169 -91 294 -119 112 -26 126 -31 141 -57 11 -17 45 -43 84 -63 l66 -33 0 39
c0 51 -17 177 -35 265 -9 39 -19 90 -23 114 -4 25 -12 46 -17 47 -6 2 -39 -8
-75 -21z"/>
<path d="M7947 2874 c-4 -4 -7 -25 -7 -46 0 -32 3 -38 21 -38 18 0 20 5 17 42
-3 39 -16 57 -31 42z"/>
<path d="M8015 2399 c-74 -21 -145 -123 -145 -208 0 -36 34 -80 76 -97 80 -34
272 -26 406 16 112 35 161 116 109 182 -28 35 -126 85 -202 103 -69 16 -196
18 -244 4z"/>
<path d="M6898 1665 c-5 -5 -8 -14 -8 -22 0 -10 35 -13 172 -13 150 0 170 2
158 14 -11 11 -55 17 -165 22 -82 3 -153 3 -157 -1z"/>
<path d="M10203 1560 c-85 -17 -146 -70 -159 -135 -14 -75 59 -124 184 -125
83 0 355 28 389 41 27 10 38 59 29 133 -12 92 -7 89 -217 92 -101 1 -203 -2
-226 -6z"/>
<path d="M12358 1390 c-3 -17 -1 -30 3 -30 10 0 18 50 9 55 -4 3 -10 -9 -12
-25z"/>
<path d="M12724 1121 c4 -6 16 -11 26 -11 33 0 50 -12 50 -34 0 -30 -30 -53
-150 -113 l-105 -53 -447 0 c-246 0 -449 -4 -452 -8 -4 -7 163 -444 175 -456
3 -3 133 -6 290 -6 l284 -1 84 234 85 235 95 47 c110 54 137 73 150 107 11 30
4 43 -29 52 -14 4 -33 10 -44 13 -12 3 -16 1 -12 -6z"/>
<path d="M12466 1093 c-6 -14 -5 -15 5 -6 7 7 10 15 7 18 -3 3 -9 -2 -12 -12z"/>
<path d="M12516 970 c6 -8 16 -24 22 -35 6 -11 12 -15 12 -8 0 7 -10 22 -22
35 -13 13 -18 17 -12 8z"/>
<path d="M9945 639 c-180 -17 -265 -28 -304 -40 -123 -37 -179 -182 -91 -234
28 -16 51 -20 115 -19 89 2 293 40 417 80 26 8 32 63 14 135 -18 70 -31 90
-55 88 -9 -1 -52 -5 -96 -10z"/>
</g>
</svg>
