<svg width="85 " height="93" viewBox="0 0 151 93" fill="none" xmlns="http://www.w3.org/2000/svg">
<g filter="url(#filter0_d_0:1)">
<path d="M104.888 31.7377C102.624 31.7377 100.41 32.3572 98.5264 33.5178C96.6432 34.6783 95.1754 36.3279 94.3087 38.2578C93.442 40.1878 93.2152 42.3115 93.6571 44.3603C94.0989 46.4091 95.1896 48.2911 96.7911 49.7682C98.3926 51.2454 100.433 52.2513 102.654 52.6588C104.876 53.0664 107.178 52.8572 109.271 52.0578C111.363 51.2584 113.151 49.9046 114.41 48.1677C115.668 46.4308 116.34 44.3887 116.34 42.2997C116.34 39.4985 115.133 36.812 112.986 34.8313C110.838 32.8505 107.925 31.7377 104.888 31.7377V31.7377ZM104.888 48.7426C103.518 48.7426 102.179 48.3678 101.039 47.6657C99.9 46.9635 99.012 45.9655 98.4877 44.7979C97.9633 43.6303 97.8261 42.3455 98.0934 41.1059C98.3608 39.8664 99.0206 38.7278 99.9895 37.8341C100.958 36.9405 102.193 36.3319 103.537 36.0853C104.881 35.8388 106.274 35.9653 107.54 36.449C108.806 36.9326 109.888 37.7516 110.649 38.8025C111.41 39.8533 111.816 41.0887 111.816 42.3526C111.816 43.1917 111.637 44.0226 111.289 44.7979C110.941 45.5732 110.431 46.2776 109.787 46.871C109.144 47.4644 108.38 47.935 107.54 48.2562C106.699 48.5773 105.798 48.7426 104.888 48.7426V48.7426Z" fill="white"/>
<path d="M122.724 25.559C118.657 21.804 114.283 18.3435 109.641 15.2082C112.816 13.4365 116.149 11.9171 119.603 10.6665C120.519 10.3496 121.378 10.112 122.237 9.87435C122.934 10.652 123.832 11.2556 124.847 11.6298C125.863 12.004 126.965 12.1367 128.051 12.0158C129.137 11.8948 130.172 11.5241 131.062 10.9377C131.952 10.3513 132.668 9.56798 133.144 8.65971C135.189 8.83044 137.118 9.60881 138.641 10.8777C142.048 14.0199 142.134 20.3572 138.927 28.2523C140.33 29.9686 141.618 31.7113 142.792 33.5333C143.279 32.4771 143.794 31.4473 144.195 30.4175C148.403 20.2515 147.859 11.9339 142.678 7.23384C140.085 4.96954 136.709 3.62284 133.144 3.43151C132.55 2.28806 131.58 1.34601 130.373 0.738622C129.166 0.131233 127.783 -0.110746 126.418 0.0469147C125.054 0.204575 123.778 0.753894 122.771 1.61717C121.764 2.48044 121.076 3.61396 120.806 4.85739C119.746 5.14784 118.687 5.4383 117.571 5.83437C112.997 7.49587 108.614 9.57458 104.488 12.0396C100.353 9.54284 95.961 7.42897 91.3758 5.72875C80.3539 1.87361 71.336 2.34891 66.2688 7.12822C61.5165 11.5379 60.7436 18.8521 63.8927 27.8826C63.1739 28.735 62.717 29.7501 62.5698 30.8214C62.4226 31.8928 62.5905 32.9809 63.0559 33.9718C63.5213 34.9626 64.2672 35.8198 65.2153 36.4535C66.1633 37.0871 67.2787 37.4739 68.4446 37.5733C69.3607 39.184 70.3627 40.7947 71.4792 42.379C68.8206 46.1931 66.5858 50.2447 64.8088 54.4725C60.6004 64.612 61.1444 72.956 66.3261 77.6297C67.9026 78.9887 69.7589 80.0419 71.785 80.7268C73.8111 81.4117 75.9656 81.7144 78.1209 81.6169C82.694 81.4793 87.203 80.585 91.4331 78.9764C96.0138 77.3098 100.406 75.2314 104.545 72.7712C108.646 75.2879 113.009 77.4197 117.571 79.1348C120.924 80.3518 124.438 81.151 128.02 81.5113C128.649 82.7445 129.709 83.7469 131.03 84.3571C132.351 84.9673 133.857 85.15 135.304 84.8757C136.751 84.6014 138.056 83.8861 139.01 82.8448C139.963 81.8035 140.509 80.4968 140.559 79.1348C141.319 78.7015 142.029 78.1971 142.678 77.6297C147.859 72.8504 148.403 64.612 144.195 54.4725C139.257 43.5815 131.95 33.7408 122.724 25.559V25.559ZM89.3432 74.0914C80.7547 77.128 73.7408 77.0752 70.3054 73.8802C66.87 70.6852 66.7841 64.3216 70.105 56.3473C71.4506 53.1615 73.0883 50.0873 75.0004 47.1583C78.41 51.4247 82.1612 55.4495 86.2227 59.199C87.4537 60.3344 88.7134 61.4434 89.973 62.4996C91.6907 61.6899 93.437 60.7657 95.212 59.7271C93.5516 58.354 91.8911 57.0866 90.2879 55.4759C83.8446 49.6362 78.314 42.9976 73.8553 35.7513C74.7507 34.8953 75.3525 33.8148 75.5854 32.645C75.8183 31.4751 75.672 30.2679 75.1648 29.1743C74.6575 28.0808 73.8119 27.1495 72.7337 26.4971C71.6555 25.8446 70.3926 25.4999 69.103 25.5061C66.9559 18.9049 67.3281 13.6503 70.334 10.8777C71.3927 10.0172 72.6263 9.35925 73.9631 8.94221C75.2999 8.52518 76.7132 8.35735 78.1209 8.44847C81.984 8.56747 85.7935 9.31848 89.3718 10.6665C92.8263 11.9171 96.1592 13.4365 99.3345 15.2082C94.6918 18.3435 90.3178 21.804 86.2514 25.559C84.9917 26.7208 83.7607 27.9354 82.5583 29.15C83.4203 30.8229 84.3759 32.4534 85.4211 34.035C86.9671 32.4243 88.5416 30.84 90.2307 29.2821C94.6352 25.224 99.4258 21.5389 104.545 18.2712C109.609 21.5513 114.351 25.2358 118.716 29.2821C123.116 33.3438 127.112 37.7625 130.654 42.4846C127.103 47.2004 123.108 51.6184 118.716 55.6871C110.386 63.6024 100.391 69.8652 89.3432 74.0914V74.0914ZM138.641 73.8538L138.183 74.1971C137.431 73.6093 136.544 73.1869 135.589 72.9619C134.635 72.7369 133.637 72.7151 132.671 72.8983C131.706 73.0814 130.799 73.4647 130.017 74.0191C129.236 74.5735 128.602 75.2845 128.163 76.0982C125.22 75.7496 122.336 75.0667 119.575 74.065C116.115 72.8249 112.781 71.3051 109.612 69.5234C114.255 66.3881 118.629 62.9276 122.695 59.1726C126.773 55.4368 130.525 51.4108 133.917 47.1319C135.838 50.0607 137.485 53.1347 138.841 56.3208C142.105 64.3216 142.105 70.7116 138.641 73.8538Z" fill="white"/>
</g>
<g filter="url(#filter1_d_0:1)">
<path d="M34.835 82.92C30.6183 82.92 25.9033 82.7667 20.69 82.46C15.5533 82.1533 10.9917 81.77 7.005 81.31V72.225C16.9717 73.2217 25.29 73.72 31.96 73.72C36.1 73.72 39.3583 73.5667 41.735 73.26C44.1883 72.8767 46.2583 72.225 47.945 71.305C49.4783 70.385 50.475 69.0433 50.935 67.28C51.395 65.44 51.625 63.025 51.625 60.035C51.625 56.4317 51.4333 53.9017 51.05 52.445C50.6667 50.9117 49.7467 49.8 48.29 49.11C46.91 48.42 44.495 47.9217 41.045 47.615L21.495 45.43C16.7417 44.8933 13.1383 43.7817 10.685 42.095C8.30833 40.3317 6.69833 38.07 5.855 35.31C5.08833 32.4733 4.705 28.7933 4.705 24.27C4.705 17.9833 5.77833 13.23 7.925 10.01C10.1483 6.78999 13.215 4.64333 17.125 3.57C21.1117 2.49666 26.44 1.96 33.11 1.96C37.5567 1.96 42.08 2.15166 46.68 2.53499C51.28 2.91833 54.9217 3.37833 57.605 3.915V12.655C54.6917 12.195 51.0883 11.85 46.795 11.62C42.5017 11.3133 38.515 11.16 34.835 11.16C30.5417 11.16 27.0917 11.3517 24.485 11.735C21.8783 12.1183 19.8467 12.77 18.39 13.69C16.78 14.61 15.745 15.8367 15.285 17.37C14.825 18.9033 14.595 21.0883 14.595 23.925C14.595 27.0683 14.825 29.3683 15.285 30.825C15.745 32.205 16.6267 33.24 17.93 33.93C19.2333 34.5433 21.38 35.0033 24.37 35.31L43.69 37.495C48.29 37.955 51.855 38.76 54.385 39.91C56.915 41.06 58.755 43.13 59.905 46.12C60.9783 48.88 61.515 53.2883 61.515 59.345C61.515 66.3217 60.4417 71.535 58.295 74.985C56.1483 78.3583 53.2733 80.5433 49.67 81.54C46.0667 82.46 41.1217 82.92 34.835 82.92Z" fill="white"/>
</g>
<defs>
<filter id="filter0_d_0:1" x="58" y="0" width="93" height="93" filterUnits="userSpaceOnUse" color-interpolation-filters="sRGB">
<feFlood flood-opacity="0" result="BackgroundImageFix"/>
<feColorMatrix in="SourceAlpha" type="matrix" values="0 0 0 0 0 0 0 0 0 0 0 0 0 0 0 0 0 0 127 0" result="hardAlpha"/>
<feOffset dy="4"/>
<feGaussianBlur stdDeviation="2"/>
<feComposite in2="hardAlpha" operator="out"/>
<feColorMatrix type="matrix" values="0 0 0 0 0 0 0 0 0 0 0 0 0 0 0 0 0 0 0.25 0"/>
<feBlend mode="normal" in2="BackgroundImageFix" result="effect1_dropShadow_0:1"/>
<feBlend mode="normal" in="SourceGraphic" in2="effect1_dropShadow_0:1" result="shape"/>
</filter>
<filter id="filter1_d_0:1" x="0.704987" y="1.95999" width="64.81" height="88.96" filterUnits="userSpaceOnUse" color-interpolation-filters="sRGB">
<feFlood flood-opacity="0" result="BackgroundImageFix"/>
<feColorMatrix in="SourceAlpha" type="matrix" values="0 0 0 0 0 0 0 0 0 0 0 0 0 0 0 0 0 0 127 0" result="hardAlpha"/>
<feOffset dy="4"/>
<feGaussianBlur stdDeviation="2"/>
<feComposite in2="hardAlpha" operator="out"/>
<feColorMatrix type="matrix" values="0 0 0 0 0 0 0 0 0 0 0 0 0 0 0 0 0 0 0.25 0"/>
<feBlend mode="normal" in2="BackgroundImageFix" result="effect1_dropShadow_0:1"/>
<feBlend mode="normal" in="SourceGraphic" in2="effect1_dropShadow_0:1" result="shape"/>
</filter>
</defs>
</svg>
